<svg version="1" xmlns="http://www.w3.org/2000/svg" width="682.667" height="682.667" viewBox="0 0 512.000000 512.000000"><path d="M337 15.6c-29.2 18.9-30.5 19.7-33 18.9-1.1-.4-8.1-7.6-15.6-16.1L274.9 3h-4.7c-13.1.1-50.3 2.1-55.6 3.1-5.8 1-55.6 12.9-69.5 16.6-5.6 1.5-7.9 2.9-16.2 10-5.4 4.5-13.5 12.1-18 16.8-4.5 4.6-8.5 8.2-8.9 8-.5-.3 1.3-2.6 3.8-5.1l4.7-4.6-5.6 4.4c-7.7 6.1-52.2 53.8-58.2 62.5-2.7 3.9-3.7 8.8-5.2 26l-.7 7.2 5.8 6.1 5.8 6.1-3.4 7.7c-4.6 10.6-4.8 13.6-1.5 21.9 1.5 3.7 3.2 7.4 3.7 8.1 1.1 1.3 3.8 0 22-11 5.4-3.2 10.9-5.8 12.3-5.8 3.5 0 10.7 2.9 12.6 5.1 1.4 1.5 1.7 4.9 1.8 21.6 0 10.9.5 22.3 1 25.3s3.5 10.9 6.6 17.4c5.7 11.8 5.7 12 4 14.8-.9 1.6-2.3 7.2-3.1 12.6-1.9 12.5-.9 23.7 5.7 62.7 6.7 40.4 15.1 85.4 17 91.3.8 2.4 6.6 8.4 20.8 21.5l19.8 18.2 44.1 19.8c24.3 10.8 45.1 19.7 46.2 19.7 1.2 0 16.4-7.2 33.8-15.9 52.9-26.5 47.6-23.2 68.6-43.4 12.7-12.3 18.8-18.7 19.5-21 .5-1.7 4.2-23 8.2-47.2l7.2-44-1.3-9.5c-2.6-18.8-2.6-19.5 2-31 2.6-6.5 3.9-11.2 3.6-12.6-.4-1.3-2.2-4.9-4.1-8.1-1.9-3.2-3.5-7.1-3.5-8.7 0-1.6 3-9.5 6.6-17.5 5.7-12.7 6.7-15.7 7.4-23.1.9-8.5 2.2-15.3 5.9-31 2.9-11.8 2.7-14.1-1.4-20.1-1.9-2.8-3.2-5.5-2.9-6 .3-.5 5.1-.9 10.8-.9 9.7 0 10.5-.2 14.7-2.9 2.4-1.6 5.3-3.8 6.4-4.9 1.9-1.8 2.3-1.8 6.2-.3 5.1 1.8 5.4 1.7 14.9-10.8l6.6-8.6-.6-7c-.5-6.5-4.2-18.8-15.6-51.5-3.7-10.5-12.8-27.6-16.3-30.7-1.8-1.5-7.1-5.4-11.7-8.6-4.7-3.2-21.1-14.6-36.5-25.3C375.1 9.8 361.8 1 361 1c-.8 0-11.6 6.6-24 14.6zm-9.8 123.8c34 7.3 62 13.4 62.2 13.7.2.2.7 2.5 1.1 5.1.7 4.4.5 4.8-1.6 5.6-4.6 1.8-153 3.2-172.9 1.7-1.9-.1-6.2-.3-9.4-.4l-6-.1 3-3.1c1.6-1.7 4.7-3.9 6.9-4.9 2.2-1 14.8-8.4 28-16.4 13.2-8 24.7-14.6 25.5-14.5.8 0 29.3 6 63.2 13.3zm-39.4 74c11.2 1.3 20.6 2.6 20.8 2.9.3.3.8 4 1 8.4.3 4.3.7 9.3 1 11.1l.5 3.4 17.4-.4c9.5-.2 17.7-.6 18-1 .7-.7 1.2-6 1.4-14.3l.1-4 17.9 1.2c17.1 1.2 18.1 1.4 20.5 3.8 1.6 1.6 3.6 2.5 5.7 2.5h3.1l-.6 10.7c-.3 6-.8 16.6-1.2 23.6l-.6 12.8-5.5 3.5c-3 1.9-5.7 4.3-6 5.3-.4 1.6-2.4 2-13.9 3l-13.4 1.2-14.1-3.1c-12.4-2.8-14.2-3-15.7-1.7-.9.8-10.5 4-21.3 7.1-26.5 7.6-30.9 7.6-55.4.6l-17.4-5h-23.8c-13.1 0-32.6.7-43.5 1.6-10.9.9-20.4 1.4-21.1 1.1-.8-.3-2.9-3.2-4.7-6.4-5.1-9.1-5.1-9.1-11.6-8.1-3.1.5-5.9.7-6.1.4-.8-.8-2.7-45.5-2-46.3.4-.3 4-.9 8.1-1.2 5.7-.5 8-1.2 9.8-2.8 2.1-1.9 4.2-2.2 21.9-3.2 10.8-.6 21.1-1.1 22.8-1.1h3.1V237.7l9.8.6c5.3.4 13.8.7 18.8.7 10.8 0 10.2.9 10.4-14 0-5.2.2-9.5.4-9.7.4-.5 35-4.1 40.1-4.2 2.8 0 14.1 1 25.3 2.3zm16.7 147.5l9 .6-2 15.4-2 15.4-22.5 8.5c-12.4 4.6-23.9 8.4-25.5 8.3-2.8 0-47.8-7-48.1-7.4-.4-.5-2.4-30-2.4-35.1v-5.5l10.3-.4c19-.6 74.1-.5 83.2.2z"/><path d="M112.4 46.2l-1.9 2.3 2.3-1.9c2.1-1.8 2.7-2.6 1.9-2.6-.2 0-1.2 1-2.3 2.2z"/></svg>